<?xml version="1.0" encoding="utf-8"?>
<!-- Generator: Adobe Illustrator 23.0.3, SVG Export Plug-In . SVG Version: 6.00 Build 0)  -->
<svg version="1.1" id="Layer_1" xmlns="http://www.w3.org/2000/svg" xmlns:xlink="http://www.w3.org/1999/xlink" x="0px" y="0px"
	 viewBox="0 0 348 348" style="enable-background:new 0 0 348 348;" xml:space="preserve">
<style type="text/css">
	.st0{fill:none;stroke:#000000;stroke-width:2;}
	.st1{fill:#FFFFFF;stroke:#000000;stroke-miterlimit:10;}
	.st2{fill:none;}
	.st3{font-family:'MyriadPro-Regular';}
	.st4{font-size:18px;}
</style>
<path class="st0" d="M5.1,5.8H342v337.7H5.1V5.8z"/>
<path class="st0" d="M282.7,40.6c0-8.4,7-15.2,15.6-15.2c4.1,0,8.1,1.6,11,4.4s4.6,6.7,4.6,10.7c0,8.4-7,15.2-15.6,15.2
	C289.7,55.7,282.7,48.9,282.7,40.6L282.7,40.6z"/>
<circle class="st1" cx="63" cy="209.1" r="34.5"/>
<circle class="st1" cx="148" cy="209.1" r="34.5"/>
<circle class="st1" cx="232.5" cy="209.1" r="34.5"/>
<circle class="st1" cx="63" cy="287.1" r="34.5"/>
<circle class="st1" cx="148" cy="287.1" r="34.5"/>
<rect x="47.5" y="201.8" class="st2" width="31" height="14.6"/>
<text transform="matrix(1 0 0 1 47.5 214.5803)" class="st3 st4">Red</text>
<rect x="131" y="201.8" class="st2" width="34" height="14.6"/>
<text transform="matrix(1 0 0 1 131 214.5803)" class="st3 st4">Blue</text>
<rect x="207.3" y="200.9" class="st2" width="50.5" height="16.4"/>
<text transform="matrix(1 0 0 1 207.25 213.6803)" class="st3 st4">Cream</text>
<rect x="37.8" y="278.9" class="st2" width="50.5" height="16.4"/>
<text transform="matrix(1 0 0 1 37.75 291.6803)" class="st3 st4">Yellow</text>
<rect x="126.9" y="280.9" class="st2" width="42.3" height="16.4"/>
<text transform="matrix(1 0 0 1 126.875 293.6803)" class="st3 st4">Black</text>
</svg>
